<?xml version="1.0" encoding="UTF-8" standalone="no"?>
<!-- Created with Inkscape (http://www.inkscape.org/) -->

<svg
   width="409.34299mm"
   height="169.487mm"
   viewBox="0 0 409.34299 169.487"
   version="1.1"
   id="svg1"
   xml:space="preserve"
   inkscape:version="1.4 (e7c3feb100, 2024-10-09)"
   sodipodi:docname="pixel_full_logo_clip.svg"
   inkscape:export-filename="pixel_full_logo_clip.png"
   inkscape:export-xdpi="96"
   inkscape:export-ydpi="96"
   xmlns:inkscape="http://www.inkscape.org/namespaces/inkscape"
   xmlns:sodipodi="http://sodipodi.sourceforge.net/DTD/sodipodi-0.dtd"
   xmlns="http://www.w3.org/2000/svg"
   xmlns:svg="http://www.w3.org/2000/svg"><sodipodi:namedview
     id="namedview1"
     pagecolor="#ffffff"
     bordercolor="#000000"
     borderopacity="0.25"
     inkscape:showpageshadow="2"
     inkscape:pageopacity="0.0"
     inkscape:pagecheckerboard="0"
     inkscape:deskcolor="#d1d1d1"
     inkscape:document-units="mm"
     showguides="true"
     inkscape:zoom="0.32917017"
     inkscape:cx="318.98394"
     inkscape:cy="119.99872"
     inkscape:window-width="1610"
     inkscape:window-height="986"
     inkscape:window-x="70"
     inkscape:window-y="27"
     inkscape:window-maximized="1"
     inkscape:current-layer="g3" /><defs
     id="defs1" /><g
     inkscape:label="Layer 1"
     inkscape:groupmode="layer"
     id="layer1"
     transform="translate(-65.776603,-88.577553)"><g
       inkscape:label="Layer 1"
       id="layer1-6"
       transform="matrix(1.8408297,0,0,1.8408297,-113.59355,-13.818575)"><g
         id="g1"
         transform="matrix(1.0395705,0,0,1.0395705,-7.4946869,-4.2927374)"><path
           style="fill:#000000;stroke-width:0.264583"
           d="m 145.66139,120.67123 v -2.11667 h -2.11667 -2.11666 v -2.11667 -2.11666 h -2.11667 -2.11667 v -2.11667 -2.11667 h -2.11666 -2.11667 v -2.11666 -2.11667 h -2.11667 -2.11666 v -2.11667 -2.11666 h -2.11667 -2.11667 v -2.116672 -2.116666 h -2.11666 -2.11667 v -8.466667 -8.466667 h 2.11667 2.11666 v -2.116666 -2.116667 h 2.11667 2.11667 v -2.116667 -2.116666 h 6.35 6.35 v 2.116666 2.116667 h 2.11666 2.11667 v 2.116667 2.116666 h 2.11667 2.11666 v -2.116666 -2.116667 h 2.11667 2.11667 v -2.116667 -2.116666 h 6.35 6.35 v 2.116666 2.116667 h 2.11666 2.11667 v 2.116667 2.116666 h 2.11667 2.11666 v 8.466667 8.466667 h -2.11666 -2.11667 v 2.116666 2.116672 h -2.11667 -2.11666 v 2.11666 2.11667 h -2.11667 -2.11667 v 2.11667 2.11666 h -2.11666 -2.11667 v 2.11667 2.11667 h -2.11667 -2.11666 v 2.11666 2.11667 h -2.11667 -2.11667 v 2.11667 2.11666 h -2.11666 -2.11667 z m 4.23333,-4.23334 v -2.11666 h 2.11667 2.11667 v -2.11667 -2.11667 h 2.11666 2.11667 v -2.11666 -2.11667 h 2.11667 2.11666 v -2.11667 -2.11666 h 2.11667 2.11667 v -2.116672 -2.116666 h 2.11666 2.11667 v -8.466667 -8.466667 h -2.11667 -2.11666 v -2.116666 -2.116667 h -6.35 -6.35 v 2.116667 2.116666 h -2.11667 -2.11667 v 2.116667 2.116667 h -2.11666 -2.11667 v -2.116667 -2.116667 h -2.11667 -2.11666 v -2.116666 -2.116667 h -6.35 -6.35 v 2.116667 2.116666 h -2.11667 -2.11667 v 8.466667 8.466667 h 2.11667 2.11667 v 2.116666 2.116672 h 2.11666 2.11667 v 2.11666 2.11667 h 2.11667 2.11666 v 2.11667 2.11666 h 2.11667 2.11667 v 2.11667 2.11667 h 2.11666 2.11667 v 2.11666 2.11667 h 2.11667 2.11666 z"
           id="path1" /><path
           style="fill:#ff2a2a;stroke:#ff2a2a;stroke-width:0.1;stroke-dasharray:none;stroke-opacity:1"
           d="m 145.69875,116.40662 v -2.11667 h -2.11667 -2.11667 v -2.11666 -2.11667 h -2.11666 -2.11667 v -2.11667 -2.11666 h -2.11667 -2.11666 v -2.11667 -2.11667 h -2.11667 -2.11667 v -2.116668 -2.116666 h -2.11666 -2.11667 v -8.466667 -8.466667 h 2.11667 2.11666 v -2.116666 -2.116667 h 6.35 6.35 v 2.116667 2.116666 h 2.11667 2.11667 v 2.116667 2.116667 h 2.11666 2.11667 v 6.35 6.35 h 8.46667 8.46666 v 2.116666 2.116668 h -2.11666 -2.11667 v 2.11667 2.11667 h -2.11667 -2.11666 v 2.11666 2.11667 h -2.11667 -2.11667 v 2.11667 2.11666 h -2.11666 -2.11667 v 2.11667 2.11667 h -2.11667 -2.11666 z"
           id="path1-6" /></g></g><g
       id="g3"><rect
         style="fill:#ffffff;fill-opacity:1;stroke:none;stroke-width:0.0944321"
         id="rect2"
         width="4.7152963"
         height="28.531845"
         x="155.40051"
         y="140.1824" /><rect
         style="fill:#ffffff;fill-opacity:1;stroke:none;stroke-width:0.116855"
         id="rect3"
         width="5.62922"
         height="36.596939"
         x="163.26787"
         y="-192.02696"
         transform="rotate(90)" /><g
         id="g9"
         transform="matrix(0.86423274,0,0,0.86423274,60.192106,39.488839)"><path
           id="path1-7"
           style="fill:#000000;fill-opacity:1;stroke-width:2.91692"
           d="m 304.63589,117.92212 v 37.04472 37.04473 h 12.34848 12.34846 v -6.17423 -6.17425 h -6.17423 -6.17423 V 148.7926 117.92212 h -6.17425 z m 61.74166,0 v 37.04472 37.04473 h 6.17424 6.17423 v -18.52202 -18.52271 h 6.17423 6.17425 v -6.17424 -6.17423 h -6.17425 -6.17423 v -6.17423 -6.17423 h 6.17423 6.17425 v -6.17424 -6.17355 h -12.34848 z m -24.69625,12.34779 v 6.17423 6.17423 h 6.17423 6.17356 v -6.17423 -6.17423 h -6.17356 z m 61.74166,0 v 30.87117 30.87049 h 12.34779 12.34847 v -6.17423 -6.17425 h -6.17423 -6.17424 v -6.17354 -6.17424 h 6.17424 6.17423 v -6.17423 -6.17424 h -6.17423 -6.17424 v -6.17424 -6.17423 h 6.17424 6.17423 v -6.17423 -6.17423 h -12.34847 z m -61.74166,24.69693 v 18.52271 18.52202 h 6.17423 6.17356 v -18.52202 -18.52271 h -6.17356 z" /><path
           id="path2"
           style="fill:#ff2a2a;fill-opacity:1;stroke-width:2.91692"
           d="m 205.84951,117.92157 v 37.04541 37.04472 h 6.17423 6.17423 v -12.34846 -12.34847 h 12.34847 12.34848 v -6.17356 -6.17423 h -12.34848 -12.34847 v -12.34846 -12.34848 h 12.34847 12.34848 v -6.17423 -6.17424 h -18.52271 z m 37.04541,12.34847 v 12.34848 12.34846 h 6.17354 6.17423 v -12.34846 -12.34848 h -6.17423 z m 0,37.04473 v 12.34847 12.34846 h 6.17354 6.17423 v -12.34846 -12.34847 h -6.17423 z m 24.69625,-37.04473 v 30.87117 30.87049 h 12.34847 12.34846 v -6.17423 -6.17423 h -6.17423 -6.17423 v -6.17424 -6.17423 h 6.17423 6.17423 v -6.17356 -6.17423 h -6.17423 -6.17423 v -6.17423 -6.17423 h 6.17423 6.17423 v -6.17425 -6.17423 h -12.34846 z" /><rect
           style="fill:#ff2a2a;fill-opacity:1;stroke:none;stroke-width:0.0812022"
           id="rect4"
           width="12.790144"
           height="12.790144"
           x="341.48053"
           y="130.08444" /></g><rect
         style="fill:#ffffff;fill-opacity:1;stroke:none;stroke-width:0.0723586"
         id="rect5"
         width="16.118055"
         height="8.0590277"
         x="118.9398"
         y="132.07993" /><rect
         style="fill:#ffffff;fill-opacity:1;stroke:none;stroke-width:0.0511653"
         id="rect8"
         width="8.0590277"
         height="8.0590277"
         x="118.9398"
         y="156.61565" /><rect
         style="fill:#ffffff;fill-opacity:1;stroke:none;stroke-width:0.0723586"
         id="rect9"
         width="16.118055"
         height="8.0590277"
         x="132.07993"
         y="-126.99883"
         transform="rotate(90)" /></g></g></svg>
